<svg width="142" height="142" viewBox="0 0 142 142" fill="none" xmlns="http://www.w3.org/2000/svg">
<g filter="url(#filter0_d_0_1)">
<rect x="4" y="-6.10352e-05" width="134" height="134" rx="19" fill="url(#paint0_linear_0_1)"/>
</g>
<g opacity="0.7" clip-path="url(#clip0_0_1)">
<path d="M77.572 63.5621C76.7128 63.5621 76.0156 62.8525 76.0156 61.9782V51.9999H48V103H88V63.5621H77.572ZM55.9377 60.3943H68.5447C69.4039 60.3943 70.1012 61.1039 70.1012 61.9782C70.1012 62.8525 69.4039 63.5621 68.5447 63.5621H55.9377C55.0786 63.5621 54.3813 62.8525 54.3813 61.9782C54.3813 61.1039 55.0786 60.3943 55.9377 60.3943ZM72.7471 94.4471H55.9377C55.0786 94.4471 54.3813 93.7376 54.3813 92.8633C54.3813 91.989 55.0786 91.2794 55.9377 91.2794H72.7471C73.6062 91.2794 74.3035 91.989 74.3035 92.8633C74.3035 93.7376 73.6062 94.4471 72.7471 94.4471ZM80.0623 83.9937H55.9377C55.0786 83.9937 54.3813 83.2842 54.3813 82.4099C54.3813 81.5356 55.0786 80.826 55.9377 80.826H80.0623C80.9214 80.826 81.6187 81.5356 81.6187 82.4099C81.6187 83.2842 80.9214 83.9937 80.0623 83.9937ZM80.0623 74.0155H55.9377C55.0786 74.0155 54.3813 73.3059 54.3813 72.4316C54.3813 71.5573 55.0786 70.8478 55.9377 70.8478H80.0623C80.9214 70.8478 81.6187 71.5573 81.6187 72.4316C81.6187 73.3059 80.9214 74.0155 80.0623 74.0155Z" fill="white"/>
<path d="M87.8039 60.3944C87.709 60.2027 87.5829 60.0269 87.4257 59.878L79.8086 52.662C79.6078 52.4719 79.3759 52.3215 79.1284 52.2106V60.3959H87.8039V60.3944Z" fill="white"/>
</g>
<path d="M53.8877 27.4726C53.8408 27.0624 53.6914 26.7109 53.4395 26.4179C53.1934 26.1191 52.8652 25.8935 52.4551 25.7411C52.0449 25.5829 51.585 25.5038 51.0752 25.5038C50.5244 25.5038 50.0352 25.5947 49.6074 25.7763C49.1855 25.9521 48.8574 26.1982 48.623 26.5146C48.3945 26.831 48.2803 27.1913 48.2803 27.5956C48.2803 28.1816 48.5176 28.6298 48.9922 28.9404C49.4727 29.2509 50.0557 29.4941 50.7412 29.6699L52.0068 30.0214C52.9912 30.2734 53.8379 30.663 54.5469 31.1904C55.2559 31.7119 55.6104 32.4941 55.6104 33.537C55.6104 34.2343 55.4258 34.8642 55.0566 35.4267C54.6934 35.9833 54.1631 36.4228 53.4658 36.7451C52.7744 37.0673 51.9482 37.2285 50.9873 37.2285C50.085 37.2285 49.2969 37.082 48.623 36.789C47.9492 36.496 47.4219 36.0829 47.041 35.5497C46.6602 35.0165 46.4463 34.3984 46.3994 33.6953H48.0166C48.0635 34.1523 48.2246 34.539 48.5 34.8554C48.7754 35.166 49.127 35.4003 49.5547 35.5585C49.9883 35.7109 50.4658 35.787 50.9873 35.787C51.5732 35.787 52.0977 35.6933 52.5605 35.5058C53.0293 35.3183 53.3955 35.0517 53.6592 34.706C53.9287 34.3544 54.0635 33.9531 54.0635 33.5019C54.0635 33.1152 53.9521 32.79 53.7295 32.5263C53.5127 32.2626 53.2256 32.0488 52.8682 31.8847C52.5166 31.7206 52.0771 31.5624 51.5498 31.4101L49.9854 30.9882C48.9424 30.6835 48.1426 30.2617 47.5859 29.7226C47.0293 29.1835 46.751 28.498 46.751 27.666C46.751 26.9687 46.9414 26.3505 47.3223 25.8115C47.709 25.2665 48.2334 24.8447 48.8955 24.5458C49.5635 24.247 50.3076 24.0976 51.1279 24.0976C51.9365 24.0976 52.6631 24.2441 53.3076 24.537C53.9521 24.83 54.4619 25.2343 54.8369 25.7499C55.2119 26.2597 55.4111 26.8339 55.4346 27.4726H53.8877ZM57.1748 24.2734H66.7725V25.6796H62.7822V36.9999H61.1826V25.6796H57.1748V24.2734ZM68.8818 24.2734H76.5986V25.6796H70.4639V29.9335H76.1943V31.3222H70.4639V35.5937H76.6865V36.9999H68.8818V24.2734ZM79.0947 24.2734H83.4189C84.3799 24.2734 85.1855 24.4492 85.8359 24.8007C86.4863 25.1523 86.9697 25.6328 87.2861 26.2421C87.6025 26.8456 87.7607 27.537 87.7607 28.3163C87.7607 29.0898 87.6025 29.7841 87.2861 30.3994C86.9697 31.0087 86.4863 31.4921 85.8359 31.8495C85.1914 32.2011 84.3916 32.3769 83.4365 32.3769H80.6768V36.9999H79.0947V24.2734ZM83.3662 30.9706C84.3271 30.9706 85.0391 30.7304 85.502 30.2499C85.9648 29.7636 86.1963 29.1191 86.1963 28.3163C86.1963 27.5078 85.9648 26.8661 85.502 26.3915C85.0391 25.9169 84.3213 25.6796 83.3486 25.6796H80.6768V30.9706H83.3662ZM94.2646 36.9999H92.665V25.9257H92.5947L89.501 27.9824V26.3828L92.665 24.2734H94.2646V36.9999Z" fill="white"/>
<defs>
<filter id="filter0_d_0_1" x="0" y="-6.10352e-05" width="142" height="142" filterUnits="userSpaceOnUse" color-interpolation-filters="sRGB">
<feFlood flood-opacity="0" result="BackgroundImageFix"/>
<feColorMatrix in="SourceAlpha" type="matrix" values="0 0 0 0 0 0 0 0 0 0 0 0 0 0 0 0 0 0 127 0" result="hardAlpha"/>
<feOffset dy="4"/>
<feGaussianBlur stdDeviation="2"/>
<feComposite in2="hardAlpha" operator="out"/>
<feColorMatrix type="matrix" values="0 0 0 0 0 0 0 0 0 0 0 0 0 0 0 0 0 0 0.25 0"/>
<feBlend mode="normal" in2="BackgroundImageFix" result="effect1_dropShadow_0_1"/>
<feBlend mode="normal" in="SourceGraphic" in2="effect1_dropShadow_0_1" result="shape"/>
</filter>
<linearGradient id="paint0_linear_0_1" x1="4" y1="-6.10352e-05" x2="138" y2="134" gradientUnits="userSpaceOnUse">
<stop stop-color="#FF4E83"/>
<stop offset="1" stop-color="#FFBB54"/>
</linearGradient>
<clipPath id="clip0_0_1">
<rect width="40" height="51" fill="white" transform="translate(48 51.9999)"/>
</clipPath>
</defs>
</svg>
