<svg width="142" height="142" viewBox="0 0 142 142" fill="none" xmlns="http://www.w3.org/2000/svg">
<g filter="url(#filter0_d_0_1)">
<rect x="4" y="-6.10352e-05" width="134" height="134" rx="19" fill="url(#paint0_linear_0_1)"/>
</g>
<g opacity="0.7" clip-path="url(#clip0_0_1)">
<path d="M41 106.095C41 107.075 41.7945 107.864 42.7808 107.864H53.129V104.325H42.783C41.7967 104.325 41 105.115 41 106.095Z" fill="white"/>
<path d="M98.3702 104.325H61.4437V107.864H98.3702C99.3565 107.864 100.151 107.075 100.151 106.095C100.151 105.115 99.3565 104.325 98.3702 104.325Z" fill="white"/>
<path d="M57.2886 101.19C56.3046 101.19 55.5079 101.981 55.5079 102.959V109.228C55.5079 110.206 56.3046 110.998 57.2886 110.998C58.2727 110.998 59.0694 110.206 59.0694 109.228V102.959C59.0694 101.981 58.2727 101.19 57.2886 101.19Z" fill="white"/>
<path d="M96.7429 55.9999H44.4103C42.5302 55.9999 41 57.5206 41 59.3889V95.6945C41 97.5628 42.5302 99.0835 44.4103 99.0835H96.7429C98.623 99.0835 100.153 97.5628 100.153 95.6945V59.3889C100.153 57.5206 98.623 55.9999 96.7429 55.9999ZM70.5755 91.1011C63.0507 91.1011 56.932 85.0184 56.932 77.5406C56.932 70.0628 63.053 63.9801 70.5755 63.9801C78.098 63.9801 84.2189 70.0628 84.2189 77.5406C84.2189 85.0184 78.098 91.1011 70.5755 91.1011Z" fill="white"/>
<path d="M76.5542 76.0132L68.5826 71.357C67.3931 70.6617 65.8922 71.514 65.8922 72.8866V82.1991C65.8922 83.5695 67.3909 84.4218 68.5826 83.7287L76.5542 79.0725C77.7278 78.3862 77.7278 76.6995 76.5542 76.0132Z" fill="white"/>
</g>
<path d="M52.2793 27.4726C52.1475 26.2245 50.9873 25.5038 49.4668 25.5038C47.7793 25.5038 46.6807 26.3828 46.6719 27.5956C46.6807 28.9316 48.166 29.4326 49.1328 29.6699L50.3984 30.0214C51.7607 30.373 54.002 31.1552 54.002 33.537C54.002 35.6113 52.332 37.2197 49.3789 37.2285C46.6367 37.2197 44.9404 35.8046 44.791 33.6953H46.4082C46.54 35.1191 47.8672 35.7958 49.3789 35.787C51.1367 35.7958 52.4551 34.8906 52.4551 33.5019C52.4551 32.2626 51.2773 31.788 49.9414 31.4101L48.377 30.9882C46.3818 30.4081 45.1338 29.3886 45.1426 27.666C45.1338 25.5126 47.0498 24.0976 49.5195 24.0976C51.9893 24.0976 53.7646 25.539 53.8262 27.4726H52.2793ZM55.5664 25.6796V24.2734H65.1641V25.6796H61.1738V36.9999H59.5742V25.6796H55.5664ZM67.2734 36.9999V24.2734H74.9902V25.6796H68.8555V29.9335H74.5859V31.3222H68.8555V35.5937H75.0781V36.9999H67.2734ZM77.4863 36.9999V24.2734H81.8105C84.79 24.2734 86.1523 26.0488 86.1523 28.3163C86.1523 30.5751 84.79 32.3769 81.8281 32.3769H79.0684V36.9999H77.4863ZM79.0684 30.9706H81.7578C83.7881 30.9706 84.5791 29.8281 84.5879 28.3163C84.5791 26.7958 83.7881 25.6796 81.7402 25.6796H79.0684V30.9706ZM92.5508 37.1757C90.0195 37.1757 88.2002 35.8222 88.1211 33.8007H89.7207C89.8086 35.0136 91.0127 35.7695 92.5332 35.7695C94.2119 35.7695 95.4248 34.8642 95.4336 33.537C95.4248 32.1484 94.3174 31.1728 92.3398 31.164H91.3027V29.7753H92.3398C93.8867 29.7753 94.9678 28.9052 94.959 27.5956C94.9678 26.3212 94.0361 25.4775 92.5859 25.4687C91.2236 25.4775 89.9844 26.2245 89.9141 27.4726H88.3848C88.4639 25.4511 90.3447 24.0976 92.6035 24.0976C95.0293 24.0976 96.5059 25.6884 96.4883 27.5078C96.5059 28.9579 95.6621 30.0126 94.3262 30.3906V30.4785C95.9873 30.7333 96.9893 31.9199 96.9805 33.537C96.9893 35.6288 95.0908 37.1757 92.5508 37.1757Z" fill="white"/>
<defs>
<filter id="filter0_d_0_1" x="0" y="-6.10352e-05" width="142" height="142" filterUnits="userSpaceOnUse" color-interpolation-filters="sRGB">
<feFlood flood-opacity="0" result="BackgroundImageFix"/>
<feColorMatrix in="SourceAlpha" type="matrix" values="0 0 0 0 0 0 0 0 0 0 0 0 0 0 0 0 0 0 127 0" result="hardAlpha"/>
<feOffset dy="4"/>
<feGaussianBlur stdDeviation="2"/>
<feComposite in2="hardAlpha" operator="out"/>
<feColorMatrix type="matrix" values="0 0 0 0 0 0 0 0 0 0 0 0 0 0 0 0 0 0 0.25 0"/>
<feBlend mode="normal" in2="BackgroundImageFix" result="effect1_dropShadow_0_1"/>
<feBlend mode="normal" in="SourceGraphic" in2="effect1_dropShadow_0_1" result="shape"/>
</filter>
<linearGradient id="paint0_linear_0_1" x1="4" y1="-6.10352e-05" x2="138" y2="134" gradientUnits="userSpaceOnUse">
<stop stop-color="#FF4E83"/>
<stop offset="1" stop-color="#FFBB54"/>
</linearGradient>
<clipPath id="clip0_0_1">
<rect width="59.1509" height="55" fill="white" transform="translate(41 55.9999)"/>
</clipPath>
</defs>
</svg>
