<svg width="142" height="142" viewBox="0 0 142 142" fill="none" xmlns="http://www.w3.org/2000/svg">
<g filter="url(#filter0_d_0_1)">
<rect x="4" y="-6.10352e-05" width="134" height="134" rx="19" fill="url(#paint0_linear_0_1)"/>
</g>
<path d="M52.5518 27.4726C52.4199 26.2245 51.2598 25.5038 49.7393 25.5038C48.0518 25.5038 46.9531 26.3828 46.9443 27.5956C46.9531 28.9316 48.4385 29.4326 49.4053 29.6699L50.6709 30.0214C52.0332 30.373 54.2744 31.1552 54.2744 33.537C54.2744 35.6113 52.6045 37.2197 49.6514 37.2285C46.9092 37.2197 45.2129 35.8046 45.0635 33.6953H46.6807C46.8125 35.1191 48.1396 35.7958 49.6514 35.787C51.4092 35.7958 52.7275 34.8906 52.7275 33.5019C52.7275 32.2626 51.5498 31.788 50.2139 31.4101L48.6494 30.9882C46.6543 30.4081 45.4062 29.3886 45.415 27.666C45.4062 25.5126 47.3223 24.0976 49.792 24.0976C52.2617 24.0976 54.0371 25.539 54.0986 27.4726H52.5518ZM55.8389 25.6796V24.2734H65.4365V25.6796H61.4463V36.9999H59.8467V25.6796H55.8389ZM67.5459 36.9999V24.2734H75.2627V25.6796H69.1279V29.9335H74.8584V31.3222H69.1279V35.5937H75.3506V36.9999H67.5459ZM77.7588 36.9999V24.2734H82.083C85.0625 24.2734 86.4248 26.0488 86.4248 28.3163C86.4248 30.5751 85.0625 32.3769 82.1006 32.3769H79.3408V36.9999H77.7588ZM79.3408 30.9706H82.0303C84.0605 30.9706 84.8516 29.8281 84.8604 28.3163C84.8516 26.7958 84.0605 25.6796 82.0127 25.6796H79.3408V30.9706ZM88.4287 36.9999L88.4111 35.8398L92.7529 31.2695C94.2559 29.6699 94.9766 28.8085 94.9854 27.6308C94.9766 26.3212 93.8867 25.4775 92.4541 25.4687C90.9336 25.4775 89.9844 26.4355 89.9756 27.8593H88.4814C88.4639 25.6093 90.2041 24.0976 92.5068 24.0976C94.8184 24.0976 96.4531 25.6533 96.4619 27.6308C96.4531 29.0546 95.7939 30.162 93.5439 32.4824L90.626 35.4882V35.5937H96.6904V36.9999H88.4287Z" fill="white"/>
<defs>
<filter id="filter0_d_0_1" x="0" y="-6.10352e-05" width="142" height="142" filterUnits="userSpaceOnUse" color-interpolation-filters="sRGB">
<feFlood flood-opacity="0" result="BackgroundImageFix"/>
<feColorMatrix in="SourceAlpha" type="matrix" values="0 0 0 0 0 0 0 0 0 0 0 0 0 0 0 0 0 0 127 0" result="hardAlpha"/>
<feOffset dy="4"/>
<feGaussianBlur stdDeviation="2"/>
<feComposite in2="hardAlpha" operator="out"/>
<feColorMatrix type="matrix" values="0 0 0 0 0 0 0 0 0 0 0 0 0 0 0 0 0 0 0.25 0"/>
<feBlend mode="normal" in2="BackgroundImageFix" result="effect1_dropShadow_0_1"/>
<feBlend mode="normal" in="SourceGraphic" in2="effect1_dropShadow_0_1" result="shape"/>
</filter>
<linearGradient id="paint0_linear_0_1" x1="4" y1="-6.10352e-05" x2="138" y2="134" gradientUnits="userSpaceOnUse">
<stop stop-color="#FF4E83"/>
<stop offset="1" stop-color="#FFBB54"/>
</linearGradient>
</defs>
</svg>
